HIERARCHY
ROOT Hips
{
	OFFSET 0.00000 0.00000 0.00000
	CHANNELS 6 Xposition Yposition Zposition Yrotation Zrotation Xrotation 
	JOINT Lumbar
	{
		OFFSET 0 0 0
		CHANNELS 3 Zrotation Xrotation Yrotation
		JOINT Neck
		{
			OFFSET 0.00 0.2701 0.00
			CHANNELS 3 Zrotation Xrotation Yrotation
			End Site
			{
				OFFSET 0.00 0.1379 0.00
			}
		}
		JOINT RightShoulder
		{
			OFFSET 0.0119 0.2289 0.1181
			CHANNELS 3 Zrotation Xrotation Yrotation
			JOINT RightElbow
			{
				OFFSET 0.00 -0.1475 0.00
				CHANNELS 2 Zrotation Yrotation
				JOINT RightWrist
				{
					OFFSET 0.00 -0.1605 0.00
					CHANNELS 2 Zrotation Xrotation
					End Site
					{
						OFFSET 0.0040 -0.1068 0.0006
					}
				}
			}
		}
		JOINT LeftShoulder
		{
			OFFSET 0.0119 0.2289 -0.1181
			CHANNELS 3 Zrotation Xrotation Yrotation
			JOINT LeftElbow
			{
				OFFSET 0.00 -0.1475 0.00
				CHANNELS 2 Zrotation Yrotation
				JOINT LeftWrist
				{
					OFFSET 0.00 -0.1605 0.00
					CHANNELS 2 Zrotation Xrotation
					End Site
					{
						OFFSET 0.0040 -0.1068 -0.0006
					}
				}
			}
		}
	}
	JOINT RightHip
	{
		OFFSET 0.0316 -0.0424 0.0458
		CHANNELS 3 Zrotation Xrotation Yrotation
		JOINT RightKnee
		{
			OFFSET 0.00 -0.2438 0.00
			CHANNELS 1 Zrotation
			JOINT RightAnkle
			{
				OFFSET 0.00 -0.2449 0.00
				CHANNELS 3 Zrotation Xrotation Yrotation
				End Site
				{
					OFFSET 0.1237 -0.0542 0.0051
				}
			}
		}
	}
	JOINT LeftHip
	{
		OFFSET 0.0316 -0.0424 -0.0458
		CHANNELS 3 Zrotation Xrotation Yrotation
		JOINT LeftKnee
		{
			OFFSET 0.00 -0.2438 0.00
			CHANNELS 1 Zrotation
			JOINT LeftAnkle
			{
				OFFSET 0.00 -0.2449 0.00
				CHANNELS 3 Zrotation Xrotation Yrotation
				End Site
				{
					OFFSET 0.1237 -0.0542 -0.0051
				}
			}
		}
	}
}
MOTION
Frames: 27
Frame Time: 0.02
0.26549 0.005 0.58877 -564.532 -35.00847 -3.33936 40.74008 1.97821 -0.51356 -2.08613 -3.90909 -0.83079 -57.40987 -62.96263 46.19458 112.93703 117.79256 -48.96832 -7.33611 27.73835 -7.93232 13.34228 135.82581 -82.34986 -53.0088 4.90746 55.31717 -5.86944 -8.71137 -18.03276 -11.03083 -3.07832 -2.45464 47.21262 -1.43809 7.65203 -27.57186 -7.12375 2.43351 1.91604
0.2606 0.00486 0.58659 -564.36997 -35.16757 -3.50303 40.74184 1.97162 -0.96326 -2.21302 -3.38172 -0.83079 -57.20619 -63.01045 46.36331 112.9643 117.17232 -48.47242 -7.26854 27.56736 -8.09209 13.11594 135.92782 -82.8297 -53.11829 4.78667 55.27372 -5.74196 -14.29284 -14.40046 -12.29222 2.52624 0.57878 46.83671 -1.16111 7.89131 -27.80308 -7.03028 2.36723 1.87654
0.25551 0.00458 0.58424 -564.1156 -35.34107 -3.62968 40.78635 1.95901 -1.41175 -2.34703 -2.84854 -0.83079 -57.33573 -62.90806 46.07886 113.02223 117.38813 -48.79355 -7.28634 27.27885 -8.25188 12.78957 135.97658 -83.30363 -53.16372 4.55632 55.167 -5.70086 -21.29422 -11.00464 -13.76527 9.54644 4.38332 46.45924 -0.88354 8.18727 -28.06492 -6.93601 2.28777 1.83021
0.25049 0.00435 0.58193 -563.90101 -35.50591 -3.76824 40.81424 1.94872 -1.85147 -2.47325 -2.31853 -0.83079 -57.34177 -62.8558 45.96428 113.06427 117.29093 -48.81469 -7.27418 27.05122 -8.39426 12.52645 136.0384 -83.70134 -53.23485 4.37842 55.10364 -5.62434 -27.40515 -7.59101 -15.05529 15.64494 7.68864 46.07879 -0.61336 8.4365 -28.31606 -6.84167 2.21801 1.78889
0.24558 0.00418 0.57977 -563.6929 -35.67902 -3.92638 40.82831 1.93933 -2.33102 -2.61874 -1.78503 -0.83079 -57.22435 -62.88097 46.00951 113.11269 116.89695 -48.52115 -7.22451 26.79022 -8.61466 12.18914 136.14876 -84.44049 -53.32697 4.19209 54.97456 -5.53344 -34.53478 -3.78681 -16.70833 22.911 11.61821 45.7133 -0.31389 8.77614 -28.55314 -6.74902 2.13228 1.73929
0.24037 0.00384 0.57725 -563.4506 -35.83862 -4.03547 40.88297 1.92721 -2.72731 -2.72552 -1.25855 -0.83079 -57.4401 -62.71167 45.61768 113.15606 117.31301 -49.06941 -7.27182 26.57276 -8.67259 11.98298 136.14593 -84.46486 -53.36015 3.99612 54.96478 -5.49127 -39.89686 -0.85614 -17.66215 28.0964 14.43835 45.31588 -0.07437 8.94045 -28.82697 -6.65284 2.07665 1.70537
0.23445 0.00304 0.5738 -563.13495 -35.95738 -4.01745 41.0288 1.90625 -2.89203 -2.72649 -0.74486 -0.83079 -58.55772 -62.00724 44.05243 113.1749 119.90958 -51.89891 -7.58446 26.48938 -8.25934 12.15375 135.82955 -82.50812 -53.21431 3.802 55.35412 -5.57531 -39.88683 -0.29545 -16.56928 27.03361 13.92617 44.83889 -0.0077 8.60383 -29.19473 -6.54578 2.10923 1.71675
0.22823 0.00206 0.56998 -562.78925 -36.06239 -3.95192 41.2164 1.8835 -2.97338 -2.68759 -0.24006 -0.83079 -59.98784 -61.11833 42.07588 113.18837 123.26726 -55.51969 -7.98846 26.45691 -7.68556 12.46094 135.40343 -79.83547 -53.01549 3.60154 55.85907 -5.70293 -38.06988 -0.6083 -14.77794 23.85255 12.28331 44.32879 0.00032 8.08914 -29.59853 -6.43551 2.17232 1.74412
0.2221 0.00115 0.56628 -562.45803 -36.17347 -3.90836 41.39151 1.86331 -3.09395 -2.66536 0.26355 -0.83079 -61.23636 -60.33603 40.3356 113.20656 126.18528 -58.68271 -8.33902 26.41073 -7.19947 12.71254 135.03618 -77.49129 -52.86114 3.40219 56.27401 -5.80212 -37.18334 -0.5081 -13.34697 21.74774 11.21279 43.8283 0.03947 7.65751 -29.98591 -6.32749 2.22017 1.76397
0.21615 0.00029 0.56278 -562.11794 -36.28473 -3.86062 41.53945 1.83496 -3.20843 -2.65022 0.7897 -0.83079 -62.66794 -59.45194 38.36915 113.21625 129.53431 -62.2984 -8.74343 26.31991 -6.65243 12.93601 134.62863 -75.12188 -52.62067 3.20549 56.83569 -5.94077 -35.91172 -0.46862 -11.73852 19.22837 9.93069 43.34946 0.0583 7.21856 -30.37439 -6.21585 2.27311 1.7846
0.20977 -0.00072 0.55876 -561.79308 -36.3935 -3.81238 41.75489 1.82398 -3.31638 -2.60983 1.26642 -0.83079 -63.78245 -58.73859 36.78479 113.24185 132.14745 -65.13572 -9.05551 26.33664 -6.19273 13.24876 134.28028 -72.65016 -52.54524 3.0045 57.13145 -6.00641 -34.96112 -0.526 -10.33561 17.03155 8.80017 42.81923 0.10734 6.75223 -30.76889 -6.11134 2.32319 1.80753
0.2023 -0.00214 0.55348 -561.49495 -36.48646 -3.76072 42.13244 1.85516 -3.42227 -2.51767 1.61093 -0.83079 -63.99396 -58.53751 36.33273 113.31382 132.61217 -65.74164 -9.09671 26.63076 -6.02561 13.80095 134.11618 -69.9408 -52.95969 2.78244 56.56357 -5.85898 -35.62686 -0.47089 -9.62936 16.40765 8.45402 42.14175 0.23801 6.24845 -31.17076 -6.02467 2.35533 1.83264
0.19441 -0.00369 0.54769 -561.21771 -36.57898 -3.71277 42.57826 1.90496 -3.52558 -2.40013 1.90538 -0.83079 -63.86588 -58.51629 36.28525 113.40173 132.29551 -65.5153 -9.04051 27.03354 -5.94958 14.43385 134.01634 -67.17732 -53.53796 2.55884 55.74067 -5.63588 -36.62298 -0.50995 -9.15946 16.14743 8.28098 41.41607 0.40373 5.72292 -31.57807 -5.94594 2.38413 1.85963
0.1867 -0.00515 0.54209 -560.94649 -36.68052 -3.67249 43.00261 1.95055 -3.63262 -2.28847 2.22159 -0.83079 -63.8581 -58.41619 36.07111 113.48134 132.28326 -65.58868 -9.02385 27.39156 -5.82395 15.01311 133.89191 -64.52432 -54.02821 2.34351 55.10449 -5.448 -37.2645 -0.61762 -8.60936 15.60126 7.96363 40.7215 0.56451 5.21195 -31.98209 -5.86513 2.41618 1.88589
0.17902 -0.00672 0.53664 -560.60939 -36.74701 -3.5917 43.39067 1.97869 -3.7248 -2.19831 2.54248 -0.83079 -64.00067 -58.29702 35.7728 113.56481 132.5012 -66.00829 -9.0291 27.7308 -5.72761 15.66878 133.74612 -61.48457 -54.5757 2.09587 54.18409 -5.25983 -38.68305 -0.29807 -7.9256 15.47622 7.87587 39.98758 0.67846 4.67943 -32.38791 -5.77714 2.44182 1.91197
0.1712 -0.0081 0.53076 -560.41395 -36.88323 -3.59593 43.86677 2.04689 -3.84986 -2.05912 2.84081 -0.83079 -63.75089 -58.26326 35.74741 113.64461 132.05779 -65.51541 -8.96597 28.13553 -5.59366 16.18256 133.65904 -59.24584 -55.04124 1.91536 53.78009 -5.05164 -38.61513 -0.86363 -7.5786 14.60703 7.37641 39.32378 0.897 4.18346 -32.79448 -5.70679 2.47979 1.93892
0.16306 -0.00897 0.5238 -560.6132 -37.24072 -3.84161 44.59582 2.22769 -4.05372 -1.78017 3.09771 -0.83079 -62.45053 -58.41718 36.41298 113.70585 129.85572 -62.55669 -8.72358 28.68367 -5.33738 16.28484 133.74051 -59.24439 -55.25989 1.9197 54.9804 -4.8244 -34.10724 -3.98097 -8.16616 11.4361 5.60916 38.87441 1.41398 3.84407 -33.17274 -5.67699 2.55093 1.96554
0.15481 -0.00963 0.51643 -560.95304 -37.66296 -4.17144 45.40552 2.44709 -4.29305 -1.45496 3.3319 -0.83079 -60.77475 -58.65206 37.33465 113.76364 127.03357 -58.73181 -8.41786 29.29547 -5.04044 16.24043 133.87544 -60.05182 -55.38643 1.99172 56.68708 -4.57635 -28.14753 -7.95702 -9.07676 7.54322 3.4435 38.49702 2.03209 3.53551 -33.55858 -5.66589 2.63465 1.99323
0.14664 -0.01035 0.50927 -561.22279 -38.03705 -4.45814 46.16116 2.64439 -4.52545 -1.15801 3.57107 -0.83079 -59.30229 -58.85421 38.11726 113.82604 124.57325 -55.39823 -8.15012 29.88535 -4.76011 16.26303 133.97168 -60.48517 -55.54344 2.03358 58.08519 -4.32562 -23.02948 -11.44969 -9.80141 4.09554 1.52433 38.07933 2.59202 3.17847 -33.95755 -5.65023 2.71373 2.02191
0.13833 -0.01121 0.50202 -561.51861 -38.4908 -4.76604 46.99438 2.86102 -4.72093 -0.82945 3.83173 -0.83079 -57.68038 -59.04744 39.00911 113.87637 121.75091 -51.62571 -7.84053 30.4506 -4.48973 16.28887 134.1301 -60.94545 -55.75677 2.07347 59.80525 -4.12245 -17.15766 -15.33924 -10.69719 0.16678 -0.66463 37.68676 3.20395 2.95871 -34.27946 -5.61799 2.78865 2.04474
0.13029 -0.01172 0.49486 -561.79426 -38.79322 -5.04916 47.68219 3.047 -4.99926 -0.5563 4.04205 -0.83079 -56.28462 -59.27354 39.72942 113.95053 119.54213 -48.57009 -7.60391 31.0794 -4.18908 16.26981 134.17183 -61.54011 -55.82557 2.13281 60.97881 -3.81764 -12.50236 -18.60493 -11.31268 -2.93837 -2.38982 37.26614 3.73212 2.46989 -34.77276 -5.62492 2.87466 2.07962
0.12297 -0.01125 0.48795 -561.97194 -38.66822 -5.24766 47.96531 3.13291 -5.51876 -0.44597 4.12645 -0.83079 -55.61044 -59.59283 39.90927 114.09312 119.21528 -47.73518 -7.5889 31.87817 -3.80345 16.18033 133.87048 -62.33087 -55.54595 2.23596 60.51522 -3.22599 -11.60445 -19.93334 -11.0542 -3.56868 -2.72304 36.69486 3.99484 1.15148 -35.65694 -5.73262 2.99361 2.1508
0.11594 -0.01044 0.48115 -562.12627 -38.38728 -5.41723 48.09547 3.1876 -6.11602 -0.3936 4.15991 -0.83079 -55.17815 -59.93755 39.90684 114.25904 119.52765 -47.65402 -7.64952 32.73503 -3.39042 16.04648 133.45138 -63.22545 -55.11887 2.35524 59.48584 -2.53564 -11.97231 -20.60405 -10.50532 -3.35088 -2.57891 36.1036 4.1708 -0.42391 -36.72672 -5.87941 3.12252 2.23358
0.10883 -0.0098 0.47435 -562.29581 -38.17386 -5.59745 48.28497 3.26054 -6.66454 -0.3156 4.21191 -0.83079 -54.63253 -60.25495 39.98806 114.41344 119.52354 -47.20797 -7.67247 33.55968 -2.99693 15.92159 133.09051 -64.05722 -54.73888 2.46265 58.71999 -1.89775 -11.72995 -21.57886 -10.10195 -3.53916 -2.66343 35.55808 4.39317 -1.8296 -37.76633 -6.01031 3.24305 2.30871
0.10149 -0.00906 0.46735 -562.44911 -37.97771 -5.79216 48.52194 3.31803 -7.27294 -0.23224 4.28222 -0.83079 -54.08528 -60.64113 40.07338 114.57299 119.59374 -46.81013 -7.70548 34.41618 -2.5722 15.84107 132.71005 -64.98134 -54.43626 2.59112 57.94619 -1.22538 -11.58128 -22.56374 -9.65269 -3.66687 -2.71317 34.85986 4.59192 -3.45748 -38.58411 -6.1346 3.37932 2.39336
0.09472 -0.00846 0.46079 -562.63106 -37.70661 -5.94745 48.62059 3.39937 -7.77203 -0.17535 4.30305 -0.83079 -53.60713 -60.8899 40.10556 114.72565 119.68575 -46.52156 -7.73833 35.213 -2.2065 15.65684 132.3437 -65.72949 -53.94321 2.67924 57.04604 -0.60369 -11.56136 -23.35772 -9.22601 -3.70792 -2.7157 34.47451 4.81506 -4.6842 -39.89959 -6.28089 3.48622 2.46161
0.08943 -0.00839 0.45536 -562.87864 -37.27654 -6.01113 48.39228 3.55716 -7.97204 -0.16955 4.19564 -0.83079 -53.23398 -60.74528 40.01621 114.86908 119.53443 -46.18046 -7.73452 35.88359 -2.01079 15.22041 132.02732 -65.94272 -52.92082 2.64661 55.95119 -0.12925 -11.55529 -23.8025 -8.92941 -3.73151 -2.71222 34.95469 5.1506 -4.73847 -42.6123 -6.48534 3.49874 2.47574
